REM DIRINDEX 1\2,1\3,1\4,1\5
REM DIRNAME folder01,folder02,folder03,folder04,folder05
TITLE ""
FILE "117.mp3" MP3
  TRACK 01 AUDIO
    TITLE "0:"
    INDEX 01 00:00:00
  TRACK 02 AUDIO
    TITLE "2:cjc046_2775"
    INDEX 01 00:00:09
  TRACK 03 AUDIO
    TITLE "0:"
    INDEX 01 00:01:13
  TRACK 04 AUDIO
    TITLE "3:cjc046_2776"
    INDEX 01 00:01:38
  TRACK 05 AUDIO
    TITLE "0:"
    INDEX 01 00:02:28
  TRACK 06 AUDIO
    TITLE "4:cjc046_2777"
    INDEX 01 00:02:38
  TRACK 07 AUDIO
    TITLE "0:"
    INDEX 01 00:03:41
  TRACK 08 AUDIO
    TITLE "2:cjc046_2778"
    INDEX 01 00:04:40
  TRACK 09 AUDIO
    TITLE "0:"
    INDEX 01 00:05:54
  TRACK 10 AUDIO
    TITLE "3:cjc046_2779"
    INDEX 01 00:06:02
  TRACK 11 AUDIO
    TITLE "0:"
    INDEX 01 00:07:25
  TRACK 12 AUDIO
    TITLE "4:cjc046_2780"
    INDEX 01 00:07:31
  TRACK 13 AUDIO
    TITLE "0:"
    INDEX 01 00:08:46
  TRACK 14 AUDIO
    TITLE "2:cjc046_2781"
    INDEX 01 00:09:55
  TRACK 15 AUDIO
    TITLE "0:"
    INDEX 01 00:10:66
  TRACK 16 AUDIO
    TITLE "3:cjc046_2782"
    INDEX 01 00:11:19
  TRACK 17 AUDIO
    TITLE "0:"
    INDEX 01 00:12:20
  TRACK 18 AUDIO
    TITLE "4:cjc046_2783"
    INDEX 01 00:12:34
  TRACK 19 AUDIO
    TITLE "0:"
    INDEX 01 00:13:47
  TRACK 20 AUDIO
    TITLE "2:cjc046_2784"
    INDEX 01 00:14:56
  TRACK 21 AUDIO
    TITLE "0:"
    INDEX 01 00:16:00
  TRACK 22 AUDIO
    TITLE "3:cjc046_2785"
    INDEX 01 00:16:22
  TRACK 23 AUDIO
    TITLE "0:"
    INDEX 01 00:17:43
  TRACK 24 AUDIO
    TITLE "4:cjc046_2786"
    INDEX 01 00:17:59
  TRACK 25 AUDIO
    TITLE "0:"
    INDEX 01 00:19:01
  TRACK 26 AUDIO
    TITLE "2:cjc046_2787"
    INDEX 01 00:20:14
  TRACK 27 AUDIO
    TITLE "0:"
    INDEX 01 00:21:31
  TRACK 28 AUDIO
    TITLE "3:cjc046_2788"
    INDEX 01 00:21:58
  TRACK 29 AUDIO
    TITLE "0:"
    INDEX 01 00:22:64
  TRACK 30 AUDIO
    TITLE "4:cjc046_2789"
    INDEX 01 00:23:04
  TRACK 31 AUDIO
    TITLE "0:"
    INDEX 01 00:24:20
  TRACK 32 AUDIO
    TITLE "2:cjc046_2790"
    INDEX 01 00:25:31
  TRACK 33 AUDIO
    TITLE "0:"
    INDEX 01 00:26:40
  TRACK 34 AUDIO
    TITLE "3:cjc046_2791"
    INDEX 01 00:26:67
  TRACK 35 AUDIO
    TITLE "0:"
    INDEX 01 00:27:57
  TRACK 36 AUDIO
    TITLE "4:cjc046_2792"
    INDEX 01 00:27:71
  TRACK 37 AUDIO
    TITLE "0:"
    INDEX 01 00:29:05
  TRACK 38 AUDIO
    TITLE "2:cjc046_2793"
    INDEX 01 00:30:12
  TRACK 39 AUDIO
    TITLE "0:"
    INDEX 01 00:31:33
  TRACK 40 AUDIO
    TITLE "3:cjc046_2794"
    INDEX 01 00:31:57
  TRACK 41 AUDIO
    TITLE "0:"
    INDEX 01 00:33:13
  TRACK 42 AUDIO
    TITLE "4:cjc046_2795"
    INDEX 01 00:33:24
  TRACK 43 AUDIO
    TITLE "0:"
    INDEX 01 00:34:45
  TRACK 44 AUDIO
    TITLE "2:cjc046_2796"
    INDEX 01 00:35:57
  TRACK 45 AUDIO
    TITLE "0:"
    INDEX 01 00:36:62
  TRACK 46 AUDIO
    TITLE "3:cjc046_2797"
    INDEX 01 00:37:12
  TRACK 47 AUDIO
    TITLE "0:"
    INDEX 01 00:38:39
  TRACK 48 AUDIO
    TITLE "4:cjc046_2798"
    INDEX 01 00:38:53
  TRACK 49 AUDIO
    TITLE "0:"
    INDEX 01 00:39:60
  TRACK 50 AUDIO
    TITLE "2:cjc046_2799"
    INDEX 01 00:40:68
  TRACK 51 AUDIO
    TITLE "0:"
    INDEX 01 00:41:71
  TRACK 52 AUDIO
    TITLE "3:cjc046_2800"
    INDEX 01 00:42:16
  TRACK 53 AUDIO
    TITLE "0:"
    INDEX 01 00:44:28
  TRACK 54 AUDIO
    TITLE "4:cjc046_2801"
    INDEX 01 00:44:44
  TRACK 55 AUDIO
    TITLE "0:"
    INDEX 01 00:45:51
  TRACK 56 AUDIO
    TITLE "2:cjc046_2802"
    INDEX 01 00:46:58
  TRACK 57 AUDIO
    TITLE "0:"
    INDEX 01 00:47:68
  TRACK 58 AUDIO
    TITLE "3:cjc046_2803"
    INDEX 01 00:48:18
  TRACK 59 AUDIO
    TITLE "0:"
    INDEX 01 00:49:10
  TRACK 60 AUDIO
    TITLE "4:cjc046_2804"
    INDEX 01 00:49:25
  TRACK 61 AUDIO
    TITLE "0:"
    INDEX 01 00:50:35
  TRACK 62 AUDIO
    TITLE "2:cjc046_2805"
    INDEX 01 00:51:44
  TRACK 63 AUDIO
    TITLE "0:"
    INDEX 01 00:52:57
  TRACK 64 AUDIO
    TITLE "3:cjc046_2806"
    INDEX 01 00:53:02
  TRACK 65 AUDIO
    TITLE "0:"
    INDEX 01 00:54:32
  TRACK 66 AUDIO
    TITLE "4:cjc046_2807"
    INDEX 01 00:54:48
  TRACK 67 AUDIO
    TITLE "0:"
    INDEX 01 00:55:61
  TRACK 68 AUDIO
    TITLE "2:cjc046_2808"
    INDEX 01 00:57:01
  TRACK 69 AUDIO
    TITLE "0:"
    INDEX 01 00:58:07
  TRACK 70 AUDIO
    TITLE "3:cjc046_2809"
    INDEX 01 00:58:38
  TRACK 71 AUDIO
    TITLE "0:"
    INDEX 01 01:00:13
  TRACK 72 AUDIO
    TITLE "4:cjc046_2810"
    INDEX 01 01:00:25
  TRACK 73 AUDIO
    TITLE "0:"
    INDEX 01 01:01:34
  TRACK 74 AUDIO
    TITLE "2:cjc046_2811"
    INDEX 01 01:02:42
  TRACK 75 AUDIO
    TITLE "0:"
    INDEX 01 01:04:01
  TRACK 76 AUDIO
    TITLE "3:cjc046_2812"
    INDEX 01 01:04:25
  TRACK 77 AUDIO
    TITLE "0:"
    INDEX 01 01:05:42
  TRACK 78 AUDIO
    TITLE "4:cjc046_2813"
    INDEX 01 01:05:52
  TRACK 79 AUDIO
    TITLE "0:"
    INDEX 01 01:07:10
  TRACK 80 AUDIO
    TITLE "2:cjc046_2814"
    INDEX 01 01:08:21
  TRACK 81 AUDIO
    TITLE "0:"
    INDEX 01 01:09:34
  TRACK 82 AUDIO
    TITLE "3:cjc046_2815"
    INDEX 01 01:09:61
  TRACK 83 AUDIO
    TITLE "0:"
    INDEX 01 01:11:07
  TRACK 84 AUDIO
    TITLE "4:cjc046_2816"
    INDEX 01 01:11:19
  TRACK 85 AUDIO
    TITLE "0:"
    INDEX 01 01:12:32
  TRACK 86 AUDIO
    TITLE "2:cjc046_2817"
    INDEX 01 01:13:42
  TRACK 87 AUDIO
    TITLE "0:"
    INDEX 01 01:14:39
  TRACK 88 AUDIO
    TITLE "3:cjc046_2818"
    INDEX 01 01:14:61
  TRACK 89 AUDIO
    TITLE "0:"
    INDEX 01 01:16:46
  TRACK 90 AUDIO
    TITLE "4:cjc046_2819"
    INDEX 01 01:16:61
  TRACK 91 AUDIO
    TITLE "0:"
    INDEX 01 01:17:59
  TRACK 92 AUDIO
    TITLE "2:cjc046_2820"
    INDEX 01 01:18:62
  TRACK 93 AUDIO
    TITLE "0:"
    INDEX 01 01:19:64
  TRACK 94 AUDIO
    TITLE "3:cjc046_2821"
    INDEX 01 01:20:14
  TRACK 95 AUDIO
    TITLE "0:"
    INDEX 01 01:21:45
  TRACK 96 AUDIO
    TITLE "4:cjc046_2822"
    INDEX 01 01:21:57
  TRACK 97 AUDIO
    TITLE "0:"
    INDEX 01 01:22:60
